<?xml version="1.0" encoding="utf-8"?>
<!-- Generator: Adobe Illustrator 24.0.3, SVG Export Plug-In . SVG Version: 6.00 Build 0)  -->
<svg version="1.1" id="Layer_1" xmlns="http://www.w3.org/2000/svg" xmlns:xlink="http://www.w3.org/1999/xlink" x="0px" y="0px"
	 width="161.5px" height="203.4px" viewBox="0 0 161.5 203.4" style="enable-background:new 0 0 161.5 203.4;" xml:space="preserve"
	>
<style type="text/css">
	.st0{fill:#FFFFFF;}
</style>
<g>
	<path class="st0" d="M81.6,10.4c-39.1,0-70.8,31.7-70.8,70.8c0,39.1,31.7,70.8,70.8,70.8s70.8-31.7,70.8-70.8
		C152.4,42.1,120.7,10.4,81.6,10.4z M56.4,120.3H37.6v-4.6l11.6-20.3H38.3v-5.2h17.4v4.8l-11.4,20.1h12.2L56.4,120.3L56.4,120.3z
		 M85.5,116.3c-3.1,3.1-6.8,4.6-11.1,4.6c-4.4,0-8.1-1.5-11.1-4.6c-3.1-3.1-4.6-6.7-4.6-11c0-4.3,1.5-8,4.6-11.1
		c3.1-3.1,6.8-4.6,11.1-4.6c4.3,0,8,1.5,11.1,4.6c3.1,3.1,4.6,6.7,4.6,11.1C90.1,109.6,88.6,113.3,85.5,116.3z M119.7,116.3
		c-3.1,3.1-6.8,4.6-11.1,4.6c-4.4,0-8.1-1.5-11.1-4.6c-3.1-3.1-4.6-6.7-4.6-11c0-4.3,1.5-8,4.6-11.1c3.1-3.1,6.8-4.6,11.1-4.6
		c4.3,0,8,1.5,11.1,4.6c3.1,3.1,4.6,6.7,4.6,11.1C124.4,109.6,122.8,113.3,119.7,116.3z M83.4,19.9c33.1,0.9,59.7,28,59.7,61.4
		c0,0.2,0,0.3,0,0.5C111.6,77,87,51.6,83.4,19.9z"/>
	<path class="st0" d="M74.4,94.8c-2.8,0-5.2,1-7.2,3.1c-2,2-3,4.5-3,7.4c0,2.9,1,5.3,3,7.4c2,2,4.4,3.1,7.2,3.1c2.8,0,5.2-1,7.2-3
		c2-2,3-4.5,3-7.4c0-2.9-1-5.4-3-7.4C79.6,95.9,77.2,94.8,74.4,94.8z"/>
	<path class="st0" d="M108.6,94.8c-2.8,0-5.2,1-7.2,3.1c-2,2-3,4.5-3,7.4c0,2.9,1,5.3,3,7.4c2,2,4.4,3.1,7.2,3.1c2.8,0,5.2-1,7.2-3
		c2-2,3-4.5,3-7.4c0-2.9-1-5.4-3-7.4C113.8,95.9,111.4,94.8,108.6,94.8z"/>
</g>
</svg>
